Coordinates
version=1
nRows=14
nColumns=32
inDegrees=yes

Units are S.I. units (second, meters, Newtons, ...)
If the header above contains a line with 'inDegrees', this indicates whether rotational values are in degrees (yes) or radians (no).

endheader
time	pelvis_tilt	pelvis_list	pelvis_rotation	pelvis_tx	pelvis_ty	pelvis_tz	hip_flexion_r	hip_adduction_r	hip_rotation_r	knee_angle_r	knee_adduction_r	med_cond_adduction_r	lat_cond_adduction_r	patella_r_constrained_knee_angle	hip_flexion_l	hip_adduction_l	hip_rotation_l	knee_angle_l	knee_adduction_l	med_cond_adduction_l	lat_cond_adduction_l	patella_l_constrained_knee_angle	lumbar_extension	lumbar_bending	lumbar_rotation	ankle_angle_r	subtalar_angle_r	mtp_angle_r	ankle_angle_l	subtalar_angle_l	mtp_angle_l
      0.97500000	    -11.63922622	      3.26339563	      7.53044247	     -0.61546250	      0.83785441	     -0.20464898	     38.28457518	     -7.05108669	     -9.67977039	     -4.84811089	      1.09361764	     -0.00000000	     -0.00000000	     -0.08461550	     -2.19681341	      4.78562263	      6.65179291	    -15.73204951	      0.67646975	     -0.00000000	     -0.00000000	     -0.27457606	     -8.08606293	     -6.35316677	     -1.70120455	      1.00320089	     -2.10700324	      0.00000000	     12.31071243	     16.86082230	     -0.00000000
      0.98000000	    -11.55106135	      3.02576868	      7.35712284	     -0.60767393	      0.83710012	     -0.20414501	     38.37729862	     -6.53581790	     -8.60556300	     -5.68961335	      1.18907125	     -0.00000000	     -0.00000000	     -0.09930249	     -2.32173064	      4.38346166	      6.72174328	    -16.62601029	      0.86514447	      0.00000000	      0.00000000	     -0.29017862	     -7.96950078	     -5.92219299	     -1.58082671	     -0.50968351	     -3.57612892	     -0.00000000	     12.03006250	     16.80411765	      0.00000000
      0.98500000	    -11.49681849	      2.94563890	      7.13081714	     -0.59988239	      0.83635823	     -0.20364998	     38.65405342	     -6.19293472	     -7.68185258	     -6.82923861	      1.23406898	      0.00000000	      0.00000000	     -0.11919270	     -2.46547982	      4.22780559	      7.00745024	    -17.45285452	      1.03046589	     -0.00000000	     -0.00000000	     -0.30460978	     -7.84733189	     -5.74380555	     -1.40449901	     -1.11009725	     -2.80641200	      0.00000000	     11.51685398	     16.57036171	      0.00000000
      0.99000000	    -11.37741360	      2.60607891	      6.88756346	     -0.59210521	      0.83578634	     -0.20305752	     38.74563295	     -5.52546777	     -6.73473517	     -7.67317664	      1.23466012	     -0.00000000	     -0.00000000	     -0.13392220	     -2.48784433	      3.69908140	      6.99376835	    -18.54431115	      1.27283010	      0.00000000	      0.00000000	     -0.32365929	     -7.75538306	     -5.13137040	     -1.12632493	     -2.71583496	     -3.64083231	      0.00000000	     10.86342810	     16.59642025	      0.00000000
      0.99500000	    -11.31517034	      2.42154802	      6.60573475	     -0.58438017	      0.83522225	     -0.20249533	     39.00604132	     -5.04995161	     -5.81573542	     -8.74599183	      1.25600984	      0.00000000	      0.00000000	     -0.15264635	     -2.47124184	      3.40560116	      7.17417050	    -19.60918801	      1.51354697	     -0.00000000	     -0.00000000	     -0.34224489	     -7.63322509	     -4.76770469	     -0.73523716	     -3.74981207	     -3.16263409	      0.00000000	     10.04628682	     16.45988195	     -0.00000000
      1.00000000	    -11.23413066	      2.13999513	      6.29858200	     -0.57673047	      0.83476817	     -0.20182549	     39.17850300	     -4.43384937	     -4.79031625	     -9.64304322	      1.25739142	      0.00000000	      0.00000000	     -0.16830285	     -2.33964592	      2.96554928	      7.23505344	    -20.87071985	      1.82635315	      0.00000000	      0.00000000	     -0.36426278	     -7.54399381	     -4.29031389	     -0.49041019	     -5.24620487	     -3.47858569	     -0.00000000	      9.14573149	     16.35636607	     -0.00000000
      1.00500000	    -11.18349962	      1.88913337	      5.97301164	     -0.56913001	      0.83439118	     -0.20118922	     39.40938014	     -3.88608037	     -3.75486151	    -10.61178079	      1.32626091	      0.00000000	      0.00000000	     -0.18521051	     -2.13958286	      2.58352238	      7.38134571	    -22.16022903	      2.15202413	     -0.00000000	     -0.00000000	     -0.38676896	     -7.43365728	     -3.84057544	     -0.15707931	     -6.54799157	     -3.45296858	      0.00000000	      8.05069873	     16.22047487	      0.00000000
      1.01000000	    -11.16391318	      1.66521746	      5.63065428	     -0.56162461	      0.83404733	     -0.20054685	     39.71120101	     -3.38665507	     -2.73242558	    -11.67399429	      1.41488558	      0.00000000	      0.00000000	     -0.20374964	     -1.81726602	      2.23569395	      7.58169002	    -23.57478481	      2.54741560	     -0.00000000	     -0.00000000	     -0.41145762	     -7.30111282	     -3.42253724	      0.07075408	     -7.46708342	     -3.11900991	     -0.00000000	      6.99567250	     16.00499372	     -0.00000000
      1.01500000	    -11.08942586	      1.28101583	      5.26090247	     -0.55413769	      0.83388478	     -0.19983088	     39.86181917	     -2.69999035	     -1.71420758	    -12.54484439	      1.50910024	     -0.00000000	     -0.00000000	     -0.21894884	     -1.44073825	      1.67196784	      7.60033344	    -25.10230659	      2.94532370	     -0.00000000	     -0.00000000	     -0.43811790	     -7.22178967	     -2.81840763	      0.57113498	     -8.78015486	     -3.25057482	     -0.00000000	      5.23828310	     15.88995345	      0.00000000
      1.02000000	    -11.03903056	      0.92116744	      4.90016324	     -0.54672572	      0.83378362	     -0.19915604	     40.03500486	     -2.07466602	     -0.63541926	    -13.47385765	      1.69759091	     -0.00000000	     -0.00000000	     -0.23516318	     -0.97192159	      1.13712398	      7.71450400	    -26.70221797	      3.40091015	      0.00000000	      0.00000000	     -0.46604162	     -7.15240195	     -2.22953811	      0.96849951	     -9.90134710	     -3.78762014	      0.00000000	      3.49711555	     15.78026923	     -0.00000000
      1.02500000	    -11.00496257	      0.52358121	      4.52556434	     -0.53943226	      0.83379154	     -0.19845620	     40.16012546	     -1.42621328	      0.58007271	    -14.31371419	      2.00701608	      0.00000000	      0.00000000	     -0.24982144	     -0.38044197	      0.55326784	      7.80933403	    -28.39949550	      3.87961924	     -0.00000000	     -0.00000000	     -0.49566470	     -7.05854020	     -1.54205242	      1.29956274	    -11.08701951	     -4.85889704	      0.00000000	      1.48675320	     15.62761651	      0.00000000
      1.03000000	    -10.92583791	      0.10168225	      4.17207581	     -0.53214595	      0.83388984	     -0.19775559	     40.23732005	     -0.76581429	      1.61099536	    -15.22367741	      2.29526322	     -0.00000000	     -0.00000000	     -0.26570330	      0.22433347	     -0.09368721	      7.94120829	    -30.14067399	      4.43838152	     -0.00000000	     -0.00000000	     -0.52605400	     -7.06099601	     -0.91123970	      1.65689921	    -11.64240401	     -5.31765801	      0.00000000	     -0.47755149	     15.47676478	     -0.00000000
      1.03500000	    -10.85556852	     -0.33356368	      3.81977548	     -0.52494720	      0.83406524	     -0.19712443	     40.27748621	     -0.11836054	      2.67681873	    -16.10837118	      2.67135964	      0.00000000	      0.00000000	     -0.28114411	      0.91492707	     -0.74196177	      8.08179805	    -31.93953800	      4.98747825	     -0.00000000	     -0.00000000	     -0.55745010	     -7.05868461	     -0.21669350	      1.96883891	    -11.94467546	     -5.82745324	     -0.00000000	     -2.57261335	     15.32923808	      0.00000000
      1.04000000	    -10.74539829	     -0.81957561	      3.48474407	     -0.51778681	      0.83437884	     -0.19650787	     40.21336911	      0.57242228	      3.68583532	    -16.95362502	      3.10212848	     -0.00000000	     -0.00000000	     -0.29589658	      1.62290924	     -1.46304903	      8.22313986	    -33.75038141	      5.54556083	     -0.00000000	     -0.00000000	     -0.58905528	     -7.10944693	      0.52679185	      2.34869871	    -12.16624194	     -6.75094025	      0.00000000	     -4.93586450	     15.26516374	      0.00000000
